<svg width="600" height="450" viewBox="0 0 600 450" fill="none" xmlns="http://www.w3.org/2000/svg">
<rect width="600" height="450" fill="#092533"/>
<path d="M125.633 216H110.193V171.52H96.2734V158.88H139.553V171.52H125.633V216ZM165.114 170.96C169.434 170.96 173.141 171.707 176.234 173.2C179.381 174.693 181.781 176.933 183.434 179.92C185.141 182.907 185.994 186.667 185.994 191.2V198H158.714C158.821 200.293 159.674 202.187 161.274 203.68C162.927 205.173 165.301 205.92 168.394 205.92C171.167 205.92 173.701 205.653 175.994 205.12C178.287 204.587 180.661 203.733 183.114 202.56V213.52C180.981 214.64 178.634 215.467 176.074 216C173.567 216.533 170.394 216.8 166.554 216.8C162.074 216.8 158.074 216.027 154.554 214.48C151.087 212.88 148.341 210.4 146.314 207.04C144.287 203.68 143.274 199.387 143.274 194.16C143.274 188.827 144.181 184.453 145.994 181.04C147.861 177.627 150.421 175.093 153.674 173.44C156.981 171.787 160.794 170.96 165.114 170.96ZM165.674 181.36C163.861 181.36 162.341 181.92 161.114 183.04C159.941 184.16 159.247 185.947 159.034 188.4H172.154C172.154 187.067 171.887 185.893 171.354 184.88C170.874 183.813 170.154 182.96 169.194 182.32C168.234 181.68 167.061 181.36 165.674 181.36ZM252.647 170.96C257.714 170.96 261.581 172.24 264.247 174.8C266.914 177.36 268.247 181.493 268.247 187.2V216H252.967V191.92C252.967 188.56 252.514 186.24 251.607 184.96C250.701 183.627 249.367 182.96 247.607 182.96C245.154 182.96 243.447 184.053 242.487 186.24C241.527 188.373 241.047 191.413 241.047 195.36V216H225.767V191.92C225.767 189.787 225.581 188.08 225.207 186.8C224.834 185.467 224.274 184.507 223.527 183.92C222.781 183.28 221.821 182.96 220.647 182.96C218.887 182.96 217.501 183.493 216.487 184.56C215.527 185.627 214.861 187.173 214.487 189.2C214.114 191.227 213.927 193.707 213.927 196.64V216H198.647V171.76H210.167L212.407 177.2H212.807C213.607 175.973 214.621 174.907 215.847 174C217.074 173.04 218.541 172.293 220.247 171.76C221.954 171.227 223.901 170.96 226.087 170.96C229.341 170.96 232.007 171.52 234.087 172.64C236.221 173.707 237.954 175.2 239.287 177.12H239.767C241.154 175.147 242.941 173.627 245.127 172.56C247.367 171.493 249.874 170.96 252.647 170.96ZM309.687 170.96C314.594 170.96 318.434 172.933 321.207 176.88C323.981 180.773 325.367 186.4 325.367 193.76C325.367 198.773 324.647 203.013 323.207 206.48C321.821 209.893 319.901 212.48 317.447 214.24C315.047 215.947 312.301 216.8 309.207 216.8C307.127 216.8 305.367 216.533 303.927 216C302.487 215.467 301.287 214.827 300.327 214.08C299.367 213.28 298.567 212.48 297.927 211.68H297.447C297.554 212.693 297.661 213.787 297.767 214.96C297.874 216.133 297.927 217.493 297.927 219.04V235.2H282.647V171.76H295.047L297.207 177.36H297.927C298.674 176.187 299.554 175.12 300.567 174.16C301.634 173.2 302.914 172.427 304.407 171.84C305.901 171.253 307.661 170.96 309.687 170.96ZM303.927 182.96C302.434 182.96 301.261 183.333 300.407 184.08C299.554 184.773 298.941 185.813 298.567 187.2C298.194 188.587 297.981 190.347 297.927 192.48V193.68C297.927 196.027 298.087 198 298.407 199.6C298.781 201.2 299.421 202.427 300.327 203.28C301.234 204.08 302.461 204.48 304.007 204.48C305.287 204.48 306.354 204.133 307.207 203.44C308.114 202.693 308.781 201.52 309.207 199.92C309.634 198.32 309.847 196.213 309.847 193.6C309.847 189.707 309.341 186.96 308.327 185.36C307.314 183.76 305.847 182.96 303.927 182.96ZM353.333 216H338.053V155.2H353.333V216ZM389.513 170.96C395.113 170.96 399.486 172.347 402.633 175.12C405.779 177.893 407.353 181.84 407.353 186.96V216H396.793L393.833 210.16H393.513C392.286 211.707 391.006 212.987 389.673 214C388.393 214.96 386.899 215.653 385.193 216.08C383.486 216.56 381.406 216.8 378.953 216.8C376.393 216.8 374.099 216.293 372.073 215.28C370.046 214.213 368.446 212.64 367.273 210.56C366.099 208.427 365.513 205.733 365.513 202.48C365.513 197.733 367.139 194.213 370.393 191.92C373.699 189.627 378.473 188.347 384.713 188.08L392.073 187.84V187.2C392.073 185.227 391.593 183.84 390.633 183.04C389.673 182.187 388.366 181.76 386.713 181.76C384.953 181.76 383.006 182.08 380.873 182.72C378.739 183.307 376.579 184.08 374.393 185.04L369.993 174.96C372.553 173.627 375.433 172.64 378.633 172C381.886 171.307 385.513 170.96 389.513 170.96ZM388.633 196.4C385.859 196.507 383.886 197.013 382.713 197.92C381.593 198.773 381.033 200 381.033 201.6C381.033 203.093 381.433 204.213 382.233 204.96C383.033 205.653 384.099 206 385.433 206C387.299 206 388.873 205.413 390.153 204.24C391.486 203.067 392.153 201.547 392.153 199.68V196.24L388.633 196.4ZM443.437 204.72C444.823 204.72 446.077 204.587 447.197 204.32C448.37 204 449.57 203.627 450.797 203.2V214.32C449.143 215.013 447.383 215.6 445.517 216.08C443.65 216.56 441.277 216.8 438.397 216.8C435.517 216.8 432.983 216.347 430.797 215.44C428.663 214.533 426.983 212.987 425.757 210.8C424.53 208.56 423.917 205.44 423.917 201.44V183.2H418.557V176.96L425.357 172.16L429.277 162.88H439.277V171.76H450.157V183.2H439.277V200.4C439.277 201.84 439.623 202.933 440.317 203.68C441.063 204.373 442.103 204.72 443.437 204.72ZM482.473 170.96C486.793 170.96 490.5 171.707 493.593 173.2C496.74 174.693 499.14 176.933 500.793 179.92C502.5 182.907 503.353 186.667 503.353 191.2V198H476.073C476.18 200.293 477.033 202.187 478.633 203.68C480.287 205.173 482.66 205.92 485.753 205.92C488.527 205.92 491.06 205.653 493.353 205.12C495.647 204.587 498.02 203.733 500.473 202.56V213.52C498.34 214.64 495.993 215.467 493.433 216C490.927 216.533 487.753 216.8 483.913 216.8C479.433 216.8 475.433 216.027 471.913 214.48C468.447 212.88 465.7 210.4 463.673 207.04C461.647 203.68 460.633 199.387 460.633 194.16C460.633 188.827 461.54 184.453 463.353 181.04C465.22 177.627 467.78 175.093 471.033 173.44C474.34 171.787 478.153 170.96 482.473 170.96ZM483.033 181.36C481.22 181.36 479.7 181.92 478.473 183.04C477.3 184.16 476.607 185.947 476.393 188.4H489.513C489.513 187.067 489.247 185.893 488.713 184.88C488.233 183.813 487.513 182.96 486.553 182.32C485.593 181.68 484.42 181.36 483.033 181.36Z" fill="white" fill-opacity="0.77"/>
<path d="M425.46 342.04L426.6 344.86C428.7 343.94 433.42 341.96 436.38 341.96C438.78 341.96 440.08 343.38 440.08 345.26C440.08 348.76 435.82 350.32 430.4 350.44L431.58 353.1C438.62 352.74 442.94 349.84 442.94 345.32C442.94 341.62 440.08 339.54 436.48 339.54C433.54 339.54 429.46 340.96 427.94 341.44C427.2 341.66 426.2 341.92 425.46 342.04ZM453.38 336.84H450.58C450.74 337.4 450.8 338.08 450.8 339.34C450.8 340.42 450.8 343.08 450.8 344.44L453.2 345.38C453.2 344.04 453.18 340.3 453.2 339.34C453.2 338.14 453.28 337.4 453.38 336.84ZM460.1 338.68L458.42 340.34C459.58 341.16 461.46 343 462.56 344.34L464.36 342.5C463.46 341.42 461.36 339.46 460.1 338.68ZM446.96 339.24L447.1 341.58C448.42 341.72 449.52 341.76 450.36 341.76C451.82 341.76 454.44 341.56 456.76 341.04V338.62C454.48 339.26 452.18 339.52 450.18 339.52C449.26 339.52 448.06 339.4 446.96 339.24ZM452.76 348.54L450.3 349.26C450.3 349.8 450.26 350.56 450.26 351.26C450.26 352.66 450.46 354.14 455.14 354.14C456.5 354.14 458.58 353.98 459.48 353.7C461.78 353 462.34 351.86 462.44 350.06C462.48 349.22 462.46 348.76 462.46 347.7L459.7 346.88C459.82 347.8 459.84 348.56 459.84 349.34C459.84 350.36 459.42 351.04 458.38 351.36C457.62 351.58 456.32 351.72 455.32 351.72C452.94 351.72 452.72 351.28 452.72 350.42C452.72 349.8 452.74 348.96 452.76 348.54ZM453.78 346.24C453.78 344.4 452.76 343.1 450.7 343.1C448.54 343.1 447 344.88 447 347.26C447 349.82 448.5 350.84 449.96 350.84C452.7 350.84 453.78 348.58 453.78 346.24ZM450.2 348.46C449.64 348.46 449.1 347.94 449.1 347.06C449.1 345.9 449.76 345.1 450.56 345.1C451.12 345.1 451.48 345.56 451.48 346.34C451.48 347.48 451.14 348.46 450.2 348.46ZM481.84 336.68L480.38 337.28C481 338.18 481.42 338.96 481.92 340.06L483.44 339.38C483.06 338.6 482.34 337.38 481.84 336.68ZM484.06 335.76L482.6 336.44C483.24 337.3 483.7 338.06 484.24 339.14L485.74 338.42C485.32 337.64 484.56 336.46 484.06 335.76ZM468.94 338.74L469.06 341.04C472.1 341.32 474.86 341.32 476.94 341.16C478.68 341.02 479.96 340.76 481 340.5L480.68 338.22C479.64 338.54 478.24 338.84 476.42 338.98C474.3 339.14 471.86 339.08 468.94 338.74ZM468.58 342.94L468.7 345.28C472.32 345.52 476.2 345.48 478.74 345.2C480.36 345 481.82 344.74 483.02 344.44L482.64 342.06C481.48 342.4 479.96 342.8 477.82 343C475.42 343.24 472.18 343.28 468.58 342.94ZM475.24 339.3C475.5 340.28 475.72 341 476.2 342.4C476.72 343.86 477.44 345.6 478.52 347.38C477.92 347.34 476.84 347.24 476 347.16L475.8 349.06C477.26 349.22 479.42 349.46 480.54 349.7L481.76 347.86C481.4 347.52 481.12 347.22 480.86 346.82C479.94 345.42 478.94 343.36 478.48 341.98C477.94 340.42 477.46 338.66 477.22 336.76L474.54 337.04C474.82 337.82 475.04 338.56 475.24 339.3ZM472.4 347.58L469.92 347.1C469.46 348.04 469.02 349.02 469.06 350.32C469.1 353.16 471.58 354.36 475.58 354.36C477.22 354.36 479.06 354.2 480.46 353.98L480.6 351.44C479.16 351.72 477.46 351.88 475.58 351.88C472.92 351.88 471.52 351.26 471.52 349.8C471.52 348.94 471.92 348.24 472.4 347.58ZM495.3 341.68C494.847 341.68 494.44 341.78 494.08 341.98C493.72 342.167 493.414 342.447 493.16 342.82C492.907 343.18 492.714 343.62 492.58 344.14C492.447 344.66 492.38 345.253 492.38 345.92C492.38 346.813 492.494 347.567 492.72 348.18C492.947 348.793 493.294 349.26 493.76 349.58C494.227 349.887 494.814 350.04 495.52 350.04C496.147 350.04 496.754 349.953 497.34 349.78C497.94 349.607 498.54 349.393 499.14 349.14V352.4C498.514 352.68 497.867 352.88 497.2 353C496.547 353.133 495.847 353.2 495.1 353.2C493.554 353.2 492.287 352.893 491.3 352.28C490.314 351.667 489.587 350.813 489.12 349.72C488.654 348.613 488.42 347.34 488.42 345.9C488.42 344.82 488.567 343.833 488.86 342.94C489.167 342.033 489.614 341.253 490.2 340.6C490.787 339.933 491.507 339.42 492.36 339.06C493.227 338.7 494.22 338.52 495.34 338.52C496.034 338.52 496.76 338.6 497.52 338.76C498.28 338.92 499.027 339.173 499.76 339.52L498.58 342.56C498.06 342.307 497.534 342.1 497 341.94C496.467 341.767 495.9 341.68 495.3 341.68ZM515.898 345.84C515.898 346.947 515.765 347.953 515.498 348.86C515.231 349.753 514.818 350.527 514.258 351.18C513.698 351.833 512.978 352.333 512.098 352.68C511.231 353.027 510.185 353.2 508.958 353.2C507.758 353.2 506.718 353.027 505.838 352.68C504.971 352.333 504.251 351.833 503.678 351.18C503.118 350.527 502.698 349.753 502.418 348.86C502.151 347.953 502.018 346.94 502.018 345.82C502.018 344.34 502.265 343.053 502.758 341.96C503.251 340.853 504.011 340 505.038 339.4C506.065 338.8 507.378 338.5 508.978 338.5C510.605 338.5 511.925 338.807 512.938 339.42C513.965 340.02 514.711 340.873 515.178 341.98C515.658 343.073 515.898 344.36 515.898 345.84ZM506.078 345.84C506.078 346.693 506.171 347.433 506.358 348.06C506.558 348.673 506.871 349.147 507.298 349.48C507.725 349.813 508.278 349.98 508.958 349.98C509.665 349.98 510.225 349.813 510.638 349.48C511.065 349.147 511.371 348.673 511.558 348.06C511.745 347.433 511.838 346.693 511.838 345.84C511.838 344.547 511.625 343.527 511.198 342.78C510.771 342.033 510.031 341.66 508.978 341.66C508.285 341.66 507.725 341.833 507.298 342.18C506.871 342.513 506.558 342.993 506.358 343.62C506.171 344.233 506.078 344.973 506.078 345.84ZM531.596 345.56C531.596 347.213 531.282 348.593 530.656 349.7C530.042 350.807 529.176 351.633 528.056 352.18C526.936 352.727 525.616 353 524.096 353H519.476V338.72H524.416C525.949 338.72 527.249 338.987 528.316 339.52C529.382 340.04 530.196 340.807 530.756 341.82C531.316 342.833 531.596 344.08 531.596 345.56ZM527.596 345.7C527.596 344.833 527.476 344.113 527.236 343.54C527.009 342.967 526.662 342.54 526.196 342.26C525.742 341.98 525.162 341.84 524.456 341.84H523.336V349.84H524.196C525.369 349.84 526.229 349.5 526.776 348.82C527.322 348.14 527.596 347.1 527.596 345.7ZM543.643 353H535.163V338.72H543.643V341.82H539.023V344.06H543.303V347.16H539.023V349.86H543.643V353Z" fill="white" fill-opacity="0.77"/>
<path d="M243.301 252.44L235.781 281H231.181L226.141 263.36C225.981 262.88 225.821 262.347 225.661 261.76C225.528 261.173 225.395 260.6 225.261 260.04C225.128 259.453 225.008 258.933 224.901 258.48C224.821 258.027 224.755 257.68 224.701 257.44C224.675 257.68 224.621 258.027 224.541 258.48C224.461 258.933 224.355 259.453 224.221 260.04C224.088 260.6 223.955 261.187 223.821 261.8C223.688 262.387 223.541 262.947 223.381 263.48L218.421 281H213.821L206.341 252.44H210.781L214.981 269.32C215.115 269.907 215.248 270.507 215.381 271.12C215.515 271.733 215.635 272.347 215.741 272.96C215.875 273.573 215.981 274.173 216.061 274.76C216.168 275.32 216.261 275.84 216.341 276.32C216.421 275.813 216.501 275.267 216.581 274.68C216.688 274.093 216.808 273.493 216.941 272.88C217.075 272.24 217.208 271.613 217.341 271C217.501 270.387 217.661 269.827 217.821 269.32L222.581 252.44H226.901L231.821 269.4C231.981 269.933 232.128 270.507 232.261 271.12C232.421 271.733 232.568 272.36 232.701 273C232.835 273.613 232.941 274.213 233.021 274.8C233.128 275.36 233.221 275.867 233.301 276.32C233.381 275.653 233.488 274.933 233.621 274.16C233.781 273.36 233.955 272.547 234.141 271.72C234.328 270.867 234.515 270.067 234.701 269.32L238.901 252.44H243.301ZM259.367 259.04C261.954 259.04 264.034 259.973 265.607 261.84C267.207 263.707 268.007 266.493 268.007 270.2C268.007 272.627 267.647 274.68 266.927 276.36C266.207 278.04 265.194 279.307 263.887 280.16C262.58 280.987 261.06 281.4 259.327 281.4C258.234 281.4 257.274 281.267 256.447 281C255.62 280.707 254.914 280.333 254.327 279.88C253.767 279.4 253.274 278.893 252.847 278.36H252.567C252.647 278.84 252.714 279.413 252.767 280.08C252.82 280.72 252.847 281.293 252.847 281.8V290.6H248.607V259.44H252.047L252.647 262.32H252.847C253.274 261.733 253.78 261.187 254.367 260.68C254.954 260.173 255.66 259.773 256.487 259.48C257.314 259.187 258.274 259.04 259.367 259.04ZM258.367 262.52C257.034 262.52 255.967 262.787 255.167 263.32C254.367 263.827 253.78 264.6 253.407 265.64C253.06 266.653 252.874 267.947 252.847 269.52V270.16C252.847 271.813 253.02 273.227 253.367 274.4C253.714 275.547 254.287 276.427 255.087 277.04C255.914 277.627 257.034 277.92 258.447 277.92C259.647 277.92 260.62 277.6 261.367 276.96C262.14 276.293 262.714 275.373 263.087 274.2C263.46 273.027 263.647 271.667 263.647 270.12C263.647 267.773 263.22 265.92 262.367 264.56C261.514 263.2 260.18 262.52 258.367 262.52ZM278.212 266.5C278.945 266.5 279.578 266.627 280.112 266.88C280.658 267.12 281.078 267.467 281.372 267.92C281.678 268.373 281.832 268.933 281.832 269.6C281.832 270.453 281.558 271.18 281.012 271.78C280.465 272.38 279.785 272.92 278.972 273.4L282.512 276.82C282.832 276.393 283.098 275.92 283.312 275.4C283.525 274.867 283.705 274.3 283.852 273.7H286.012C285.812 274.527 285.538 275.327 285.192 276.1C284.858 276.86 284.425 277.547 283.892 278.16L286.812 281H284.052L282.492 279.5C282.172 279.753 281.845 279.987 281.512 280.2C281.178 280.413 280.818 280.593 280.432 280.74C280.058 280.873 279.652 280.98 279.212 281.06C278.772 281.153 278.292 281.2 277.772 281.2C276.812 281.2 275.978 281.047 275.272 280.74C274.565 280.42 274.018 279.967 273.632 279.38C273.258 278.78 273.072 278.067 273.072 277.24C273.072 276.56 273.185 275.973 273.412 275.48C273.652 274.987 273.992 274.553 274.432 274.18C274.885 273.793 275.412 273.427 276.012 273.08C275.718 272.747 275.445 272.407 275.192 272.06C274.952 271.7 274.752 271.327 274.592 270.94C274.445 270.553 274.372 270.133 274.372 269.68C274.372 269.013 274.525 268.447 274.832 267.98C275.152 267.5 275.598 267.133 276.172 266.88C276.758 266.627 277.438 266.5 278.212 266.5ZM277.272 274.38C276.858 274.633 276.505 274.893 276.212 275.16C275.932 275.413 275.705 275.7 275.532 276.02C275.372 276.327 275.292 276.693 275.292 277.12C275.292 277.8 275.525 278.347 275.992 278.76C276.472 279.16 277.098 279.36 277.872 279.36C278.605 279.36 279.238 279.247 279.772 279.02C280.318 278.793 280.785 278.513 281.172 278.18L277.272 274.38ZM278.152 268.2C277.658 268.2 277.245 268.327 276.912 268.58C276.578 268.833 276.412 269.213 276.412 269.72C276.412 270.16 276.525 270.573 276.752 270.96C276.978 271.333 277.298 271.74 277.712 272.18C278.432 271.767 278.958 271.373 279.292 271C279.625 270.613 279.792 270.173 279.792 269.68C279.792 269.227 279.638 268.867 279.332 268.6C279.025 268.333 278.632 268.2 278.152 268.2ZM299.638 252.44C303.371 252.44 306.091 253.2 307.798 254.72C309.505 256.213 310.358 258.307 310.358 261C310.358 262.2 310.158 263.347 309.758 264.44C309.385 265.533 308.758 266.52 307.878 267.4C306.998 268.253 305.825 268.933 304.358 269.44C302.918 269.92 301.145 270.16 299.038 270.16H295.958V281H291.638V252.44H299.638ZM299.318 256.08H295.958V266.52H298.558C300.185 266.52 301.545 266.347 302.638 266C303.731 265.627 304.545 265.053 305.078 264.28C305.638 263.48 305.918 262.44 305.918 261.16C305.918 259.453 305.385 258.187 304.318 257.36C303.278 256.507 301.611 256.08 299.318 256.08ZM326.01 259.04C328.73 259.04 330.757 259.64 332.09 260.84C333.423 262.013 334.09 263.867 334.09 266.4V281H331.09L330.25 278H330.09C329.477 278.773 328.837 279.413 328.17 279.92C327.53 280.427 326.783 280.8 325.93 281.04C325.103 281.28 324.09 281.4 322.89 281.4C321.61 281.4 320.45 281.173 319.41 280.72C318.397 280.24 317.597 279.52 317.01 278.56C316.423 277.573 316.13 276.347 316.13 274.88C316.13 272.693 316.957 271.027 318.61 269.88C320.29 268.733 322.837 268.107 326.25 268L329.93 267.88V266.68C329.93 265.08 329.57 263.96 328.85 263.32C328.13 262.68 327.117 262.36 325.81 262.36C324.69 262.36 323.623 262.52 322.61 262.84C321.597 263.16 320.637 263.547 319.73 264L318.37 260.92C319.383 260.387 320.543 259.947 321.85 259.6C323.183 259.227 324.57 259.04 326.01 259.04ZM327.01 270.72C324.557 270.827 322.85 271.24 321.89 271.96C320.957 272.653 320.49 273.64 320.49 274.92C320.49 276.04 320.823 276.853 321.49 277.36C322.183 277.867 323.05 278.12 324.09 278.12C325.77 278.12 327.157 277.653 328.25 276.72C329.343 275.787 329.89 274.387 329.89 272.52V270.64L327.01 270.72ZM353.259 259.04C353.632 259.04 354.045 259.067 354.499 259.12C354.952 259.147 355.325 259.187 355.619 259.24L355.179 263.2C354.885 263.12 354.539 263.053 354.139 263C353.739 262.947 353.365 262.92 353.019 262.92C352.219 262.92 351.445 263.08 350.699 263.4C349.979 263.693 349.325 264.133 348.739 264.72C348.152 265.28 347.685 265.973 347.339 266.8C347.019 267.627 346.859 268.573 346.859 269.64V281H342.619V259.44H345.979L346.539 263.28H346.699C347.152 262.507 347.699 261.8 348.339 261.16C348.979 260.52 349.712 260.013 350.539 259.64C351.365 259.24 352.272 259.04 353.259 259.04ZM369.371 277.96C369.931 277.96 370.504 277.907 371.091 277.8C371.678 277.693 372.184 277.573 372.611 277.44V280.64C372.158 280.853 371.544 281.027 370.771 281.16C369.998 281.32 369.224 281.4 368.451 281.4C367.278 281.4 366.198 281.2 365.211 280.8C364.251 280.4 363.478 279.707 362.891 278.72C362.304 277.733 362.011 276.36 362.011 274.6V262.68H359.011V260.76L362.171 259.16L363.651 254.6H366.251V259.44H372.411V262.68H366.251V274.52C366.251 275.693 366.531 276.56 367.091 277.12C367.678 277.68 368.438 277.96 369.371 277.96ZM393.244 274.92C393.244 276.333 392.897 277.52 392.204 278.48C391.51 279.44 390.51 280.173 389.204 280.68C387.897 281.16 386.324 281.4 384.484 281.4C382.964 281.4 381.657 281.28 380.564 281.04C379.497 280.827 378.51 280.507 377.604 280.08V276.36C378.564 276.813 379.67 277.227 380.924 277.6C382.177 277.947 383.404 278.12 384.604 278.12C386.204 278.12 387.35 277.867 388.044 277.36C388.764 276.853 389.124 276.173 389.124 275.32C389.124 274.84 388.99 274.413 388.724 274.04C388.457 273.64 387.95 273.24 387.204 272.84C386.484 272.413 385.417 271.933 384.004 271.4C382.644 270.84 381.484 270.293 380.524 269.76C379.564 269.2 378.83 268.547 378.324 267.8C377.817 267.027 377.564 266.04 377.564 264.84C377.564 262.973 378.31 261.547 379.804 260.56C381.324 259.547 383.324 259.04 385.804 259.04C387.11 259.04 388.337 259.173 389.484 259.44C390.657 259.68 391.79 260.053 392.884 260.56L391.484 263.8C390.87 263.507 390.23 263.267 389.564 263.08C388.924 262.867 388.27 262.693 387.604 262.56C386.964 262.427 386.297 262.36 385.604 262.36C384.324 262.36 383.35 262.56 382.684 262.96C382.017 263.36 381.684 263.92 381.684 264.64C381.684 265.147 381.83 265.587 382.124 265.96C382.444 266.333 382.99 266.707 383.764 267.08C384.537 267.453 385.59 267.907 386.924 268.44C388.257 268.947 389.39 269.467 390.324 270C391.284 270.533 392.004 271.187 392.484 271.96C392.99 272.733 393.244 273.72 393.244 274.92Z" fill="white" fill-opacity="0.77"/>
</svg>
